<svg width="2207" height="656" viewBox="0 0 2207 656" fill="none" xmlns="http://www.w3.org/2000/svg">
<path d="M212.5 387.5L367.578 111.719C369.922 109.375 372.266 108.594 374.609 108.594H378.516L215.625 397.656V605.469C215.625 616.016 212.109 624.219 205.469 630.469C198.438 637.109 190.625 641.797 181.25 644.531C171.875 647.656 164.062 649.219 157.031 649.219V393.75C131.25 346.875 105.078 298.828 77.7344 250C51.1719 201.562 25 154.297 0 108.594H28.9062C48.0469 108.594 61.3281 114.844 68.75 126.953C104.688 189.844 140.234 253.516 175 319.141C187.891 342.188 200 364.844 212.5 387.5ZM450 254.688C498.438 254.688 540.234 274.219 574.609 313.281C608.984 352.344 626.172 399.609 626.172 455.078C626.172 510.156 608.984 557.422 574.609 596.484C540.234 635.547 498.438 655.078 450 655.078C401.172 655.078 359.375 635.547 325 596.484C290.625 557.422 273.438 510.156 273.438 455.078C273.438 399.609 290.625 352.344 325 313.281C359.375 274.219 401.172 254.688 450 254.688ZM413.672 269.922C378.516 278.125 353.125 301.953 336.719 341.016C326.172 365.625 321.094 393.359 321.094 423.438C321.094 441.406 323.047 460.156 326.562 479.688C353.906 582.812 402.734 634.375 472.266 634.375C476.562 634.375 481.25 633.984 486.328 633.594C547.266 614.453 578.125 564.844 578.125 484.375C578.125 467.578 576.562 449.609 574.219 430.078C562.5 377.344 541.797 335.938 512.109 305.859C486.719 280.859 459.375 268.359 430.469 268.359C425 268.359 419.141 269.141 413.672 269.922ZM805.859 424.219C834.375 432.422 860.547 443.75 884.766 458.594C908.594 473.438 920.703 498.828 920.703 534.766C920.703 564.844 908.984 592.188 885.547 617.188C861.719 642.578 826.562 655.078 779.297 655.078C748.047 655.078 717.578 648.828 688.281 636.719C674.609 630.859 661.328 623.828 648.438 615.625C640.234 608.203 635.938 601.172 635.938 593.75C635.938 589.844 637.109 585.938 639.844 582.031C644.922 574.609 650 571.094 655.078 571.094C657.422 571.094 660.156 571.875 662.5 573.438C663.672 576.172 665.234 578.516 666.797 580.859C671.875 589.062 677.734 596.484 684.375 603.125C689.453 607.031 695.703 610.938 702.734 615.234C709.766 619.531 717.578 623.828 726.562 627.344C735.156 631.25 744.531 634.375 755.078 636.328C765.234 638.672 776.172 639.844 787.891 639.844C812.5 639.844 834.375 633.984 854.297 621.875C874.219 610.156 883.984 593.359 883.984 571.484C883.984 542.578 872.656 521.484 850.391 508.594C828.125 495.703 801.953 485.156 771.875 476.172C733.594 464.062 703.516 448.828 682.031 430.078C660.547 411.719 649.609 385.156 649.609 350.781C649.609 342.578 651.562 333.203 655.859 322.266C659.766 311.719 666.016 301.172 675 290.625C683.984 280.469 695.312 271.875 709.766 264.844C723.828 258.203 741.016 254.688 761.328 254.688C800 254.688 835.547 265.625 867.578 287.891C878.906 294.922 889.453 302.734 899.219 311.719C905.469 319.141 908.594 326.172 908.594 332.422C908.594 337.5 906.641 342.188 902.734 346.484C897.656 351.953 892.578 355.078 888.281 355.078C885.156 355.078 882.031 353.516 879.297 351.172C878.516 348.438 877.344 346.094 876.172 343.359C865.625 320.312 850.391 301.562 829.688 286.719C811.719 273.047 789.453 266.406 763.281 266.406C742.578 266.406 724.219 271.875 708.984 282.422C693.75 292.969 685.938 308.594 685.938 329.297C685.938 354.297 696.484 373.438 717.578 386.328C738.281 399.609 764.062 410.938 794.922 420.703L805.859 424.219ZM1263.67 649.219V455.078C1263.67 406.641 1249.61 365.234 1221.88 330.859C1194.14 296.484 1160.16 279.297 1120.7 279.297C1078.91 279.297 1043.36 298.438 1014.84 336.719V605.469C1014.84 616.016 1011.33 624.219 1004.69 630.469C997.656 637.109 989.453 641.797 980.469 644.531C971.094 647.656 962.891 649.219 956.25 649.219V300.391C956.25 251.562 966.016 204.297 985.156 158.203C1004.3 112.5 1032.81 74.6094 1069.92 44.5312C1107.03 14.8438 1151.95 0 1205.47 0C1225.39 3.125 1235.16 12.5 1235.16 28.125V31.25C1233.98 46.4844 1223.44 54.2969 1203.52 54.2969C1200 54.2969 1196.88 53.9062 1192.97 53.5156C1175.39 48.4375 1157.03 46.0938 1137.89 46.0938C1087.89 46.0938 1055.08 62.8906 1039.06 96.875C1023.05 130.859 1014.84 185.156 1014.84 260.547V321.484C1029.69 300.781 1046.09 284.375 1063.67 272.266C1081.25 260.547 1108.98 254.688 1146.09 254.688C1183.2 254.688 1221.09 273.438 1259.77 310.938C1298.05 348.438 1318.75 395.312 1322.27 451.172L1322.66 454.688V605.469C1322.66 616.016 1319.14 624.219 1312.5 630.469C1305.47 637.109 1297.27 641.797 1288.28 644.531C1278.91 647.656 1270.7 649.219 1263.67 649.219ZM1416.02 605.469C1416.02 621.094 1408.98 632.031 1394.53 639.062C1380.08 645.703 1367.58 649.219 1357.42 649.219V300.781C1357.42 285.156 1364.45 274.219 1378.91 267.578C1393.36 260.547 1405.47 257.422 1416.02 257.422V605.469ZM1386.72 175C1404.3 175 1414.84 185.547 1418.36 206.641C1418.36 224.219 1407.81 234.766 1386.72 238.281C1369.14 238.281 1358.59 227.734 1355.08 206.641C1355.08 189.453 1365.62 178.906 1386.72 175ZM1456.25 649.219V300.781C1456.25 290.234 1459.77 282.031 1466.8 275.391C1473.44 269.141 1481.64 264.453 1490.62 261.719C1499.61 258.984 1507.81 257.422 1514.84 257.422V321.484C1550.39 276.953 1594.14 254.688 1646.09 254.688C1694.14 254.688 1735.16 273.438 1768.75 310.938C1802.34 348.828 1820.31 395.312 1822.66 451.172V605.469C1822.66 616.016 1819.14 624.219 1812.5 630.469C1805.47 637.109 1797.27 641.797 1788.28 644.531C1778.91 647.656 1770.7 649.219 1763.67 649.219V620.703C1763.67 579.297 1764.06 544.922 1764.06 517.188C1764.06 489.844 1763.67 469.141 1763.67 455.078C1763.67 406.641 1749.61 365.234 1721.88 330.859C1694.14 296.484 1660.16 279.297 1620.7 279.297C1578.91 279.297 1543.36 298.438 1514.84 336.719V605.469C1514.84 616.016 1511.33 624.219 1504.69 630.469C1497.66 637.109 1489.45 641.797 1480.47 644.531C1471.09 647.656 1462.89 649.219 1456.25 649.219ZM2030.47 254.688C2078.91 254.688 2120.7 274.219 2155.08 313.281C2189.45 352.344 2206.64 399.609 2206.64 455.078C2206.64 510.156 2189.45 557.422 2155.08 596.484C2120.7 635.547 2078.91 655.078 2030.47 655.078C1981.64 655.078 1939.84 635.547 1905.47 596.484C1871.09 557.422 1853.91 510.156 1853.91 455.078C1853.91 399.609 1871.09 352.344 1905.47 313.281C1939.84 274.219 1981.64 254.688 2030.47 254.688ZM1994.14 269.922C1958.98 278.125 1933.59 301.953 1917.19 341.016C1906.64 365.625 1901.56 393.359 1901.56 423.438C1901.56 441.406 1903.52 460.156 1907.03 479.688C1934.38 582.812 1983.2 634.375 2052.73 634.375C2057.03 634.375 2061.72 633.984 2066.8 633.594C2127.73 614.453 2158.59 564.844 2158.59 484.375C2158.59 467.578 2157.03 449.609 2154.69 430.078C2142.97 377.344 2122.27 335.938 2092.58 305.859C2067.19 280.859 2039.84 268.359 2010.94 268.359C2005.47 268.359 1999.61 269.141 1994.14 269.922Z" fill="#560C51"/>
</svg>
